<svg id="Layer_1" data-name="Layer 1" xmlns="http://www.w3.org/2000/svg" viewBox="0 0 195.37 336.53"><path d="M374,220.68c0,11.77-2.15,31.94-20.32,47.68l42,4.93C406,253.09,407.06,236,407,224c-.06-22.13-4.34-52.38-28.78-76.68-15.41-15.08-39.38-26.83-69.14-29.27l.1,37.57c16.73,1.27,33.63,7.52,45.3,18.38C364.05,182.89,373.89,197.15,374,220.68Z" transform="translate(-211.65 -118)"/><path d="M296.9,155.64c-22.41.12-45.07,6.69-62.62,25.27-9.47,9.86-22.81,29.82-22.63,63.72.13,23.81,7.22,38.62,11.18,46.17l42.61,5.09c-6.47-4.73-20.83-17.82-21-46.11-.09-16,4.88-29.73,16-40.43,8.36-7.89,21.49-15.81,41.94-15.92,2.18,0,4.38.08,6.58.24l-.2-37.57C304.94,155.79,301,155.62,296.9,155.64Z" transform="translate(-211.65 -118)"/><path d="M324,353l6.15-12.22c4.53-9,6.8-13.59,9.56-17,4-5.07,8.63-7.29,14.78-6.88a20.41,20.41,0,0,1,15.17,8.32c3.11,3.86,5.77,10.21,5.1,20.27a35,35,0,0,1-17.93,28.85L380.22,398c21-16.28,24.36-36.83,25.17-48.85,1.1-16.5-.43-35.69-14.51-51.8-11-12.52-24.65-17.65-39.19-18.62-9.78-.65-21.35.26-31.51,9.41-3.45,3-7.16,7.52-11.35,14.64l.13,70.45A68.58,68.58,0,0,0,324,353Z" transform="translate(-211.65 -118)"/><path d="M307.7,443.52l1.13-70.44c-1.28,2.1-2.61,4.42-4,7l-5.37,10.22c-3.68,7-5.27,12.49-10.82,18.21s-11,7.49-17.74,6.93c-8.93-.76-14.81-4.35-18.67-8.62-7.48-7.94-7.76-17.81-7.15-25.06.71-8.38,3-16,9.81-22.79,4.61-4.67,12.6-9.33,18.14-11.68l-20.36-28.43c-9.43,5.1-19.63,12.67-26.58,21.64-8.84,11.34-12.65,23.11-13.85,37.34-1.31,15.36-.22,35.69,13.27,52.3,10.43,13,28.75,22.4,49.13,24.13,12.28,1,21.2-1.29,30.84-8.91C306.26,444.78,307,444.15,307.7,443.52Z" transform="translate(-211.65 -118)"/></svg>